<?xml version="1.0" encoding="iso-8859-1"?>
<!-- Uploaded to: SVG Repo, www.svgrepo.com, Generator: SVG Repo Mixer Tools -->
<svg height="800px" width="800px" version="1.1" id="Layer_1" xmlns="http://www.w3.org/2000/svg" xmlns:xlink="http://www.w3.org/1999/xlink" 
	 viewBox="0 0 512 512" xml:space="preserve">
<circle style="fill:#EDEDED;" cx="256" cy="256" r="245.801"/>
<path d="M256,512c-68.381,0-132.667-26.628-181.019-74.98C26.628,388.667,0,324.38,0,256S26.628,123.333,74.981,74.98
	C123.333,26.628,187.619,0,256,0s132.667,26.628,181.019,74.98C485.372,123.333,512,187.62,512,256s-26.628,132.667-74.981,181.02
	C388.667,485.372,324.381,512,256,512z M256,20.398C126.089,20.398,20.398,126.089,20.398,256S126.089,491.602,256,491.602
	S491.602,385.911,491.602,256S385.911,20.398,256,20.398z"/>
<circle style="fill:#FFBC52;" cx="256" cy="256" r="197.283"/>
<path d="M256,463.486c-114.409,0-207.487-93.078-207.487-207.486S141.591,48.514,256,48.514S463.487,141.591,463.487,256
	S370.409,463.486,256,463.486z M256,68.912C152.839,68.912,68.911,152.839,68.911,256S152.839,443.088,256,443.088
	S443.089,359.161,443.089,256S359.161,68.912,256,68.912z"/>
<path d="M402.71,280.478c-0.358,0-0.718-0.019-1.083-0.057c-5.601-0.592-9.664-5.612-9.072-11.214
	c0.506-4.799,0.763-9.695,0.763-14.552c0-5.633,4.567-10.199,10.199-10.199c5.632,0,10.199,4.566,10.199,10.199
	c0,5.57-0.295,11.186-0.876,16.694C412.287,276.587,407.862,280.478,402.71,280.478z"/>
<path d="M396.578,300.608c-5.222-2.122-11.168,0.39-13.29,5.607c-21.1,51.899-70.935,85.434-126.964,85.434
	c-75.538,0-136.994-61.455-136.994-136.994c0-45.116,22.525-87.467,59.398-112.893l0.249,0.587
	c3.301,7.801,13.81,9.104,18.915,2.344l13.803-18.277c5.105-6.759,0.979-16.509-7.427-17.552l-22.73-2.818
	c-8.407-1.042-14.789,7.407-11.488,15.208l0.585,1.383c-20.479,13.322-37.714,31.3-50.112,52.406
	c-14.125,24.046-21.592,51.575-21.592,79.612c0,86.786,70.606,157.392,157.392,157.392c31.925,0,62.666-9.508,88.901-27.495
	c25.608-17.558,45.305-41.99,56.958-70.655C404.306,308.679,401.795,302.73,396.578,300.608z"/>
<path d="M241.284,320.255h-66.877c-4.405,0-8.312-2.828-9.689-7.013c-1.376-4.185,0.091-8.78,3.636-11.395
	c0.156-0.116,16.032-11.871,31.614-26.726c27.048-25.785,29.149-37.743,29.149-40.795c0-13.13-11.093-24.223-24.223-24.223
	c-13.357,0-24.223,10.866-24.223,24.223c0,5.633-4.567,10.199-10.199,10.199s-10.199-4.566-10.199-10.199
	c0-24.605,20.017-44.622,44.622-44.622s44.622,20.017,44.622,44.622c0,14.661-11.653,32.881-35.622,55.701
	c-3.663,3.486-7.312,6.791-10.782,9.829h38.172c5.632,0,10.199,4.566,10.199,10.199S246.917,320.255,241.284,320.255z"/>
<path d="M325.865,320.255c-5.632,0-10.199-4.566-10.199-10.199v-21.272h-47.499c-3.844,0-7.361-2.161-9.098-5.589
	c-1.737-3.428-1.4-7.542,0.872-10.642l57.698-78.68c2.609-3.557,7.209-5.032,11.399-3.661c4.191,1.373,7.026,5.283,7.026,9.693
	v68.481h12.749c5.632,0,10.199,4.566,10.199,10.199s-4.567,10.199-10.199,10.199h-12.749v21.272
	C336.064,315.689,331.497,320.255,325.865,320.255z M288.294,268.385h27.372v-37.326L288.294,268.385z"/>
</svg>