<?xml version="1.0" ?>
<!DOCTYPE svg  PUBLIC '-//W3C//DTD SVG 1.1//EN'  'http://www.w3.org/Graphics/SVG/1.1/DTD/svg11.dtd'>
<!-- Uploaded to: SVG Repo, www.svgrepo.com, Generator: SVG Repo Mixer Tools -->
<svg width="800px" height="800px" viewBox="0 0 512 512" version="1.1" xml:space="preserve" xmlns="http://www.w3.org/2000/svg" xmlns:xlink="http://www.w3.org/1999/xlink">
<g id="_x34_77_x2C__mouse_x2C__online_x2C__board_x2C__education">
<g>
<path d="M311,111l20,200h-50h-30H131h-30H51l20-200h40h160H311z" style="fill:#FFF2D4;"/>
<polygon points="80.25,120.625 120.25,120.625 280.25,120.625 311.963,120.625 311,111 271,111 111,111     71,111 51,311 61.212,311   " style="fill:#F0DCA0;"/>
<path d="M461,353.73V396c0,24.85-20.15,45-45,45h-10c-24.85,0-45-20.15-45-45v-42.27H461z" style="fill:#FFF2D4;"/>
<path d="M368.875,403.938v-42.27H461v-7.938H361V396c0,14.373,6.75,27.164,17.242,35.403    C372.375,423.803,368.875,414.28,368.875,403.938z" style="fill:#F0DCA0;"/>
<polygon points="461,321 461,353.73 361,353.73 361,321 411,321   " style="fill:#95A5A5;"/>
<polygon points="368.375,329.125 418.375,329.125 461,329.125 461,321 411,321 361,321 361,353.73     368.375,353.73   " style="fill:#7E8C8D;"/>
<polygon points="131,311 111,431 81,431 101,311   " style="fill:#73665C;"/>
<polygon points="107.833,318.833 129.694,318.833 131,311 101,311 81,431 89.139,431   " style="fill:#60534A;"/>
<polygon points="281,311 301,431 271,431 251,311   " style="fill:#73665C;"/>
<polygon points="260.25,318.667 282.277,318.667 281,311 251,311 271,431 278.973,431   " style="fill:#60534A;"/>
<rect height="40" style="fill:#73665C;" width="160" x="111" y="71"/>
<polygon points="121,81.833 271,81.833 271,71 111,71 111,111 121,111   " style="fill:#60534A;"/>
<path d="M211,231h-40v-40C193.09,191,211,208.91,211,231z" style="fill:#A8CFFF;"/>
<path d="M177.625,200.183c11.321,0,21.536,4.712,28.813,12.272C199.751,199.704,186.395,191,171,191v40    h6.625V200.183z" style="fill:#8BBAE8;"/>
<path d="M171,231h40c0,22.09-17.91,40-40,40s-40-17.91-40-40s17.91-40,40-40V231z" style="fill:#E8F9F9;"/>
<g>
<g>
<g>
<path d="M134.5,240.625c0-20.91,16.05-38.064,36.5-39.838V191c-22.09,0-40,17.91-40,40       c0,6.623,1.62,12.864,4.47,18.366C134.842,246.551,134.5,243.629,134.5,240.625z" style="fill:#CCE5E4;"/>
</g>
</g>
</g>
<path d="M251,151v80h-40c0-22.09-17.91-40-40-40v-40H251z" style="fill:#D7DEED;"/>
<g>
<g>
<g>
<path d="M179,159.375h72V151h-80v40c2.74,0,5.415,0.277,8,0.802V159.375z" style="fill:#AFB9D2;"/>
</g>
<g>
<path d="M203.616,207.859C208.26,214.393,211,222.375,211,231h7.115       C216.125,221.663,210.875,213.538,203.616,207.859z" style="fill:#AFB9D2;"/>
</g>
</g>
</g>
<path d="M101,316H51c-1.413,0-2.759-0.598-3.707-1.645c-0.948-1.048-1.409-2.447-1.268-3.853l20-200    C66.28,107.946,68.431,106,71,106h40c2.761,0,5,2.239,5,5s-2.239,5-5,5H75.525l-19,190H101c2.761,0,5,2.238,5,5    S103.761,316,101,316z"/>
<path d="M251,316H131c-2.761,0-5-2.238-5-5s2.239-5,5-5h120c2.761,0,5,2.238,5,5S253.761,316,251,316z"/>
<path d="M331,316h-50c-2.762,0-5-2.238-5-5s2.238-5,5-5h44.475l-19-190H271c-2.762,0-5-2.239-5-5s2.238-5,5-5h40    c2.568,0,4.72,1.946,4.976,4.502l20,200c0.141,1.405-0.32,2.805-1.269,3.853C333.76,315.402,332.413,316,331,316z"/>
<path d="M111,436H81c-1.47,0-2.865-0.646-3.815-1.769c-0.95-1.121-1.358-2.604-1.117-4.054l20-120    C96.47,307.767,98.556,306,101,306h30c1.47,0,2.865,0.646,3.815,1.769c0.95,1.121,1.358,2.604,1.117,4.054l-20,120    C115.53,434.233,113.444,436,111,436z M86.902,426h19.862l18.333-110h-19.862L86.902,426z"/>
<path d="M301,436h-30c-2.444,0-4.53-1.767-4.932-4.178l-20-120c-0.241-1.45,0.167-2.933,1.117-4.054    c0.95-1.122,2.345-1.769,3.815-1.769h30c2.444,0,4.53,1.767,4.932,4.178l20,120c0.242,1.45-0.167,2.933-1.116,4.054    C303.865,435.354,302.47,436,301,436z M275.235,426h19.862l-18.333-110h-19.862L275.235,426z"/>
<path d="M211,356h-80c-2.761,0-5-2.238-5-5s2.239-5,5-5h80c2.761,0,5,2.238,5,5S213.761,356,211,356z"/>
<path d="M251,236h-80c-2.761,0-5-2.239-5-5v-80c0-2.761,2.239-5,5-5h80c2.761,0,5,2.239,5,5v80C256,233.761,253.761,236,251,236z     M176,226h70v-70h-70V226z"/>
<path d="M171,276c-24.813,0-45-20.187-45-45s20.187-45,45-45s45,20.187,45,45S195.813,276,171,276z M171,196    c-19.299,0-35,15.701-35,35s15.701,35,35,35s35-15.701,35-35S190.299,196,171,196z"/>
<path d="M101,266c-2.761,0-5-2.238-5-5V151c0-2.761,2.239-5,5-5h40c2.761,0,5,2.239,5,5s-2.239,5-5,5h-35v105    C106,263.762,103.761,266,101,266z"/>
<path d="M271,116H111c-2.761,0-5-2.239-5-5V71c0-2.761,2.239-5,5-5h160c2.762,0,5,2.239,5,5v40C276,113.761,273.762,116,271,116z     M116,106h150V76H116V106z"/>
<path d="M416,446h-10c-27.57,0-50-22.43-50-50v-75c0-2.762,2.238-5,5-5h100c2.762,0,5,2.238,5,5v75C466,423.57,443.57,446,416,446    z M366,326v70c0,22.056,17.944,40,40,40h10c22.056,0,40-17.944,40-40v-70H366z"/>
<path d="M461,358.73H361c-2.762,0-5-2.238-5-5s2.238-5,5-5h100c2.762,0,5,2.238,5,5S463.762,358.73,461,358.73z"/>
<path d="M411,326c-2.762,0-5-2.238-5-5v-55c0-5.346-2.079-10.369-5.855-14.145S391.346,246,386,246    c-8.017,0-15.551-3.12-21.216-8.785C359.12,231.551,356,224.017,356,216c0-16.542,13.458-30,30-30h30    c5.346,0,10.368-2.08,14.144-5.855C433.921,176.369,436,171.346,436,166c0-11.028-8.972-20-20-20h-95c-2.762,0-5-2.239-5-5    s2.238-5,5-5h95c16.542,0,30,13.458,30,30c0,8.017-3.12,15.551-8.785,21.216C431.551,192.88,424.017,196,416,196h-30    c-11.028,0-20,8.972-20,20c0,5.346,2.079,10.369,5.855,14.145S380.654,236,386,236c8.017,0,15.551,3.12,21.216,8.785    C412.88,250.449,416,257.983,416,266v55C416,323.762,413.762,326,411,326z"/>
<path d="M411,402.625c-2.762,0-5-2.238-5-5v-40c0-2.762,2.238-5,5-5s5,2.238,5,5v40C416,400.387,413.762,402.625,411,402.625z"/>
</g>
</g>
<g id="Layer_1"/>
</svg>