<?xml version="1.0" encoding="iso-8859-1"?>
<!-- Uploaded to: SVG Repo, www.svgrepo.com, Generator: SVG Repo Mixer Tools -->
<svg height="800px" width="800px" version="1.1" id="Layer_1" xmlns="http://www.w3.org/2000/svg" xmlns:xlink="http://www.w3.org/1999/xlink" 
	 viewBox="0 0 392.472 392.472" xml:space="preserve">
<path style="fill:#FFFFFF;" d="M370.751,164.333c0-78.61-64.776-142.545-144.42-142.545c-79.58,0-144.42,63.935-144.42,142.481
	v19.394c0,2.392-0.776,4.719-2.263,6.594l-46.804,61.673h38.271c6.012,0,10.925,4.848,10.925,10.925v54.949
	c0,4.396,3.62,8.016,8.016,8.016h33.81c6.012,0,10.925,4.848,10.925,10.925v22.949c0,6.012,4.848,10.925,10.925,10.925h143.644
	c6.012,0,10.925-4.848,10.925-10.925c0-38.853,13.188-75.96,37.236-104.469C358.92,229.884,370.751,197.561,370.751,164.333z"/>
<path style="fill:#FFC10D;" d="M156.577,348.898v-44.735h-52.752v-73.956H76.932l26.893-35.491v-30.384
	c0-66.521,55.014-120.695,122.57-120.695s122.57,54.174,122.57,120.695c0,28.057-10.02,55.402-28.186,76.994
	c-25.018,29.673-39.822,67.556-42.02,107.572H156.577z"/>
<g>
	<path style="fill:#194F82;" d="M226.33,0.002c-91.669,0-166.206,73.697-166.206,164.331v15.709L2.266,256.325
		c-5.883,7.434,0.646,18.036,8.663,17.455h49.196v44.154c0,16.485,13.382,29.802,29.802,29.802h22.949v12.024
		c0,18.036,14.675,32.711,32.711,32.711h143.644c18.036,0,32.711-14.675,32.711-32.711c0-33.745,11.378-65.81,32.065-90.44
		c24.824-29.414,38.465-66.78,38.465-105.115C392.536,73.699,317.999,0.002,226.33,0.002z M337.393,255.355
		c-24.048,28.444-37.236,65.551-37.236,104.469c0,6.012-4.848,10.925-10.925,10.925h-143.58c-6.012,0-10.925-4.849-10.925-10.925
		v-22.949c0-6.012-4.848-10.925-10.925-10.925H89.926c-4.396,0-8.016-3.62-8.016-8.016v-55.014c0-6.012-4.848-10.925-10.925-10.925
		H32.843l46.804-61.673c1.487-1.939,2.263-4.202,2.263-6.594v-19.394c0-78.61,64.776-142.481,144.42-142.481
		c79.58,0,144.42,63.935,144.42,142.481C370.751,197.561,358.92,229.884,337.393,255.355z"/>
	<path style="fill:#194F82;" d="M219.736,164.139C219.348,164.139,220.254,164.139,219.736,164.139L219.736,164.139z"/>
	<path style="fill:#194F82;" d="M226.007,43.832c-71.758,0-104.727,53.333-114.295,77.446c-9.568,20.493,5.172,55.531,40.21,56.048
		c0,0,41.244-1.875,51.071,40.081c6.594,30.384,33.552,52.364,64.194,52.364c45.511,0,81.067-51.2,81.067-108.154
		C348.254,111.129,306.233,43.832,226.007,43.832z M310.694,144.034c-5.042-3.297-11.83-1.875-15.063,3.168
		c-5.172,7.952-6.271,17.519-2.909,26.44c3.297,8.857,10.408,15.451,19.523,18.101l9.632,2.78
		c-7.887,24.178-25.729,52.105-54.174,53.333c11.895-9.18,17.067-22.044,15.58-38.465c-2.004-12.994-10.343-24.113-22.174-29.737
		c-5.43-2.521-11.96-0.323-14.545,5.172c-2.521,5.43-0.259,11.96,5.172,14.545c5.43,2.586,9.115,7.499,10.02,13.446
		c1.099,11.119-4.655,17.325-18.295,27.927c-9.051-5.883-16.485-15.192-19.265-27.992c-4.267-19.846-16.873-40.598-39.628-50.747
		c6.206-5.818,10.408-12.929,12.671-20.622h0.065c3.103-0.517,6.206,0.388,8.404,2.521c2.263,2.133,3.426,5.172,3.103,8.275
		c-0.646,6.012,4.848,11.442,10.796,12.024c5.495,0,10.214-4.202,10.796-9.762c1.099-9.956-2.521-19.653-9.826-26.44
		c-6.206-5.818-14.158-8.792-22.432-8.598c-1.293-6.788-4.202-13.446-8.663-19.329c-3.685-4.784-10.537-5.624-15.321-2.004
		c-4.784,3.685-5.624,10.537-2.004,15.321c8.21,10.667,6.206,25.988-4.461,34.133l-10.602,8.145
		c-14.545,2.004-31.418-11.313-25.341-26.505c5.236-13.705,13.382-25.729,24.113-35.943c16.485-15.58,37.624-25.018,60.38-27.152
		c-3.62,19.135,11.507,38.335,34.844,35.362c5.947-1.034,9.891-6.659,8.857-12.606c-1.034-5.947-6.659-9.891-12.606-8.857
		c-2.651,0.453-5.236-0.323-7.176-2.133c-2.844-2.521-3.038-5.947-2.004-11.378c24.372,3.491,44.994,13.188,61.091,30.707
		c-23.596,2.327-38.465,18.877-41.051,40.016c-0.517,6.012,3.879,11.313,9.826,11.83c5.56,0,11.378-4.202,11.83-9.891
		c2.457-17.002,15.968-21.85,33.939-21.915c7.499,13.576,11.83,28.832,12.283,44.865c0.065,3.685,0,7.37-0.323,10.99l-7.952-2.263
		c-2.392-0.711-4.267-2.392-5.107-4.719c-0.84-2.327-0.646-4.784,0.776-6.853C317.223,154.054,315.736,147.331,310.694,144.034z"/>
</g>
<path style="fill:#56ACE0;" d="M313.086,166.078c0.84,2.327,2.715,4.008,5.107,4.719l7.952,2.263c0.323-3.62,0.453-7.24,0.323-10.99
	c-0.453-15.968-4.719-31.224-12.283-44.865c-17.907,0.065-31.547,4.913-33.939,21.915c-0.517,5.624-6.271,9.891-11.83,9.891
	c-6.012-0.517-10.408-5.883-9.826-11.83c2.521-21.204,17.455-37.689,41.051-40.016c-16.162-17.455-36.784-27.216-61.091-30.707
	c-1.034,5.43-0.84,8.792,2.004,11.378c1.939,1.875,4.59,2.651,7.176,2.133c5.947-1.034,11.572,2.909,12.606,8.857
	c1.034,5.947-2.909,11.572-8.857,12.606c-23.337,2.909-38.465-16.226-34.844-35.362c-22.82,2.069-43.895,11.507-60.38,27.152
	c-10.731,10.214-18.877,22.238-24.113,35.943c-6.077,15.192,10.796,28.509,25.341,26.505l10.602-8.145
	c10.667-8.21,12.671-23.596,4.461-34.133c-3.685-4.784-2.78-11.572,2.004-15.321c4.784-3.685,11.572-2.78,15.321,2.004
	c4.461,5.883,7.37,12.541,8.663,19.329c8.275-0.259,16.226,2.78,22.432,8.598c7.24,6.853,10.925,16.485,9.826,26.44
	c-0.646,5.56-5.301,9.762-10.796,9.762c-6.012-0.646-11.507-6.077-10.796-12.024c0.323-3.103-0.776-6.077-3.103-8.275
	c-2.263-2.133-5.301-3.103-8.404-2.521h-0.065c-2.263,7.758-6.465,14.869-12.671,20.622c22.82,10.214,35.362,30.966,39.628,50.747
	c2.78,12.735,10.214,22.109,19.265,27.992c13.576-10.667,19.394-16.873,18.295-27.927c-0.905-5.947-4.59-10.796-10.02-13.446
	c-5.43-2.521-7.758-9.115-5.172-14.545c2.586-5.43,9.115-7.758,14.545-5.172c11.895,5.624,20.17,16.743,22.174,29.737
	c1.487,16.485-3.685,29.349-15.58,38.465c28.444-1.293,46.287-29.156,54.174-53.333l-9.632-2.78
	c-9.115-2.651-16.226-9.18-19.523-18.101c-3.297-8.921-2.263-18.554,2.909-26.44c3.297-5.042,10.02-6.4,15.063-3.168
	c5.042,3.297,6.4,10.02,3.168,15.063C312.569,161.165,312.245,163.751,313.086,166.078z"/>
<path style="fill:#194F82;" d="M268.415,149.076C268.157,149.076,268.803,149.076,268.415,149.076L268.415,149.076z"/>
</svg>