<!DOCTYPE svg PUBLIC "-//W3C//DTD SVG 1.1//EN" "http://www.w3.org/Graphics/SVG/1.1/DTD/svg11.dtd">
<!-- Uploaded to: SVG Repo, www.svgrepo.com, Transformed by: SVG Repo Mixer Tools -->
<svg version="1.1" id="Layer_1" xmlns="http://www.w3.org/2000/svg" xmlns:xlink="http://www.w3.org/1999/xlink" viewBox="0 0 512 512" xml:space="preserve" width="800px" height="800px" fill="#000000">
<g id="SVGRepo_bgCarrier" stroke-width="0"/>
<g id="SVGRepo_tracerCarrier" stroke-linecap="round" stroke-linejoin="round"/>
<g id="SVGRepo_iconCarrier"> <circle style="fill:#c17e1f;" cx="256" cy="280.012" r="224.103"/> <path style="fill:#e4bd90;" d="M97.534,438.476c-87.518-87.518-87.518-229.413,0-316.931s229.413-87.518,316.931,0"/> <circle style="fill:#ac8e6c;" cx="256" cy="280.012" r="192.089"/> <path style="fill:#bea889;" d="M120.173,415.839c-75.016-75.016-75.016-196.64,0-271.655s196.64-75.016,271.655,0"/> <g> <path style="fill:#FFFFFF;" d="M323.356,425.133l-6.648-14.3c20.688-9.618,39.059-24.251,53.127-42.318l12.443,9.688 C366.679,398.237,346.304,414.466,323.356,425.133z"/> <path style="fill:#FFFFFF;" d="M390.694,366.321l-13.27-8.519c5-7.788,9.26-16.088,12.662-24.666l14.659,5.813 C400.97,348.47,396.242,357.68,390.694,366.321z"/> </g> <polygon style="fill:#1D1D1B;" points="280.011,0 231.989,0 231.989,15.77 248.115,15.77 248.115,31.896 263.885,31.896 263.885,15.77 280.011,15.77 "/> <rect x="135.948" y="167.961" style="fill:#FFFFFF;" width="240.114" height="72.037"/> <g> <polygon style="fill:#1D1D1B;" points="86.132,76.187 74.98,65.035 41.024,98.992 52.175,110.144 63.578,98.74 74.98,110.143 86.132,98.993 74.729,87.59 "/> <polygon style="fill:#1D1D1B;" points="472.585,98.992 438.628,65.035 427.477,76.187 438.88,87.59 427.477,98.992 438.628,110.144 450.031,98.74 461.434,110.144 "/> <path style="fill:#1D1D1B;" d="M383.94,247.877H128.06v-87.804h255.881v87.804H383.94z M143.83,232.107h224.341v-56.264H143.83 V232.107z"/> <path style="fill:#1D1D1B;" d="M239.874,223.867h-39.78v-39.781h39.78V223.867z M215.863,208.097h8.24v-8.241h-8.24V208.097z"/> <path style="fill:#1D1D1B;" d="M191.852,223.867H152.07v-39.781h39.781V223.867z M167.84,208.097h8.241v-8.241h-8.241V208.097z"/> <path style="fill:#1D1D1B;" d="M359.93,223.867h-39.781v-39.781h39.781V223.867z M335.918,208.097h8.241v-8.241h-8.241V208.097z"/> <path style="fill:#1D1D1B;" d="M311.907,223.867h-39.78v-39.781h39.78V223.867z M287.896,208.097h8.24v-8.241h-8.24V208.097z"/> <rect x="247.999" y="184.089" style="fill:#1D1D1B;" width="16.008" height="15.77"/> <rect x="247.999" y="208.101" style="fill:#1D1D1B;" width="16.008" height="15.77"/> <rect x="247.999" y="272.127" style="fill:#1D1D1B;" width="16.008" height="15.77"/> <path style="fill:#1D1D1B;" d="M426.288,122.484l6.681-6.681l-11.15-11.149l-6.622,6.622 c-41.313-39.034-94.543-61.222-151.311-63.106v-8.27h-15.77v8.27C191.728,50.04,138.833,71.95,97.639,110.498l-5.846-5.848 L80.641,115.8l5.848,5.848c-40.342,43.111-62.477,99.032-62.477,158.361c0,61.966,24.131,120.224,67.948,164.041 C135.776,487.869,194.033,512,256,512s120.224-24.131,164.041-67.948c43.818-43.818,67.948-102.075,67.948-164.041 C487.989,221.063,466.137,165.48,426.288,122.484z M256,496.23c-119.223,0-216.219-96.995-216.219-216.219 S136.777,63.793,256,63.793s216.219,96.995,216.219,216.219S375.223,496.23,256,496.23z"/> <path style="fill:#1D1D1B;" d="M256,80.037c-110.266,0-199.974,89.708-199.974,199.974S145.734,479.986,256,479.986 s199.974-89.708,199.974-199.974S366.266,80.037,256,80.037z M263.885,464.036v-23.95h-15.77v23.95 c-95.31-4.035-172.103-80.829-176.139-176.14h23.949v-15.77H71.976c4.035-95.311,80.829-172.105,176.139-176.14v23.95h15.77v-23.95 c95.31,4.035,172.104,80.829,176.139,176.14h-23.949v15.77h23.949C435.989,383.207,359.195,460.001,263.885,464.036z"/> </g> <rect x="248.115" y="296.014" style="fill:#FFFFFF;" width="15.77" height="128.063"/> </g>
</svg>