<?xml version="1.0" encoding="utf-8"?>
<!-- Uploaded to: SVG Repo, www.svgrepo.com, Generator: SVG Repo Mixer Tools -->
<svg width="800px" height="800px" viewBox="0 0 1024 1024" class="icon"  version="1.1" xmlns="http://www.w3.org/2000/svg"><path d="M641.394532 598.181452c39.876238-47.952645 63.880205-109.527061 63.880205-176.762539 0-152.816933-123.861456-276.678388-276.678388-276.678388-152.78724 0-276.678388 123.861456-276.678388 276.678388 0 152.78724 123.891148 276.678388 276.678388 276.678388 67.235478 0 128.809893-24.007039 176.762539-63.881229l198.377781 198.378805 36.037692-36.035644-198.379829-198.377781z m-212.798183 70.791431c-136.518726 0-247.55397-111.064937-247.55397-247.55397 0-136.518726 111.035244-247.55397 247.55397-247.55397 136.490057 0 247.55397 111.035244 247.55397 247.55397 0 136.490057-111.063913 247.55397-247.55397 247.55397z" fill="#98C4D8" /><path d="M428.596349 204.808805c-120.649527 0-218.430576 97.75238-218.430576 218.430576 0 120.591166 97.781049 218.430576 218.430576 218.430576S647.026925 543.830547 647.026925 423.239381c0-120.678196-97.781049-218.430576-218.430576-218.430576z" fill="#98C4D8" /><path d="M612.270114 569.057034c39.876238-47.952645 63.880205-109.527061 63.880205-176.762539 0-152.816933-123.861456-276.678388-276.678388-276.678388-152.78724 0-276.678388 123.861456-276.678388 276.678388 0 152.78724 123.891148 276.678388 276.678388 276.678388 67.235478 0 128.809893-24.007039 176.762539-63.881229l198.377781 198.378805 36.037692-36.035644-198.379829-198.377781zM399.472955 639.849489c-136.518726 0-247.55397-111.064937-247.55397-247.55397 0-136.518726 111.035244-247.55397 247.55397-247.55397 136.490057 0 247.55397 111.035244 247.55397 247.55397 0 136.489033-111.064937 247.55397-247.55397 247.55397z" fill="#EFD9A0" /><path d="M399.472955 175.684387c-120.649527 0-218.430576 97.75238-218.430576 218.430576 0 120.591166 97.781049 218.430576 218.430576 218.430576s218.430576-97.83941 218.430576-218.430576c-0.001024-120.678196-97.782072-218.430576-218.430576-218.430576z" fill="#EFD9A0" /><path d="M280.809411 260.244937a26.202249 55.678884 55.515 1 0 91.789363-63.049707 26.202249 55.678884 55.515 1 0-91.789363 63.049707Z" fill="#FEFEFE" /><path d="M224.54454 351.874801a17.467484 30.56912 55.515 1 0 50.394689-34.615889 17.467484 30.56912 55.515 1 0-50.394689 34.615889Z" fill="#FEFEFE" /></svg>