<!DOCTYPE svg PUBLIC "-//W3C//DTD SVG 1.1//EN" "http://www.w3.org/Graphics/SVG/1.1/DTD/svg11.dtd">
<!-- Uploaded to: SVG Repo, www.svgrepo.com, Transformed by: SVG Repo Mixer Tools -->
<svg height="800px" width="800px" version="1.1" id="Layer_1" xmlns="http://www.w3.org/2000/svg" xmlns:xlink="http://www.w3.org/1999/xlink" viewBox="0 0 512.001 512.001" xml:space="preserve" fill="#000000">
<g id="SVGRepo_bgCarrier" stroke-width="0"/>
<g id="SVGRepo_tracerCarrier" stroke-linecap="round" stroke-linejoin="round"/>
<g id="SVGRepo_iconCarrier"> <g> <polygon style="fill:#f3dfb4;" points="241.053,158.565 281.417,273.537 371.641,273.537 280.589,14.54 238.988,14.54 141.945,273.537 198.042,273.537 "/> <polygon style="fill:#f3dfb4;" points="430.544,441.057 394.906,339.696 304.508,339.696 340.117,441.057 "/> <polygon style="fill:#f3dfb4;" points="173.106,339.696 117.168,339.696 79.189,441.057 135.359,441.057 "/> </g> <g> <path style="fill:#bb9544;" d="M239.036,325.155h-65.932H138.14l13.886-37.078h46.016h83.375h90.224 c0.557,0,1.105-0.038,1.646-0.099c0.145-0.016,0.288-0.045,0.433-0.065c0.403-0.058,0.801-0.128,1.192-0.218 c0.154-0.035,0.305-0.077,0.458-0.118c0.385-0.102,0.762-0.218,1.134-0.35c0.141-0.051,0.282-0.1,0.42-0.154 c0.397-0.156,0.782-0.329,1.162-0.516c0.103-0.051,0.208-0.096,0.31-0.15c0.951-0.5,1.838-1.102,2.649-1.791 c0.125-0.106,0.241-0.22,0.364-0.33c0.276-0.252,0.544-0.51,0.8-0.782c0.124-0.131,0.246-0.265,0.365-0.401 c0.26-0.297,0.505-0.605,0.74-0.922c0.061-0.083,0.132-0.156,0.192-0.238c0.023-0.033,0.042-0.071,0.065-0.105 c0.618-0.887,1.138-1.845,1.549-2.862c0.047-0.116,0.086-0.236,0.129-0.353c0.144-0.384,0.273-0.774,0.385-1.173 c0.044-0.157,0.083-0.316,0.122-0.474c0.087-0.362,0.16-0.727,0.221-1.098c0.029-0.179,0.06-0.358,0.081-0.537 c0.044-0.358,0.07-0.72,0.087-1.085c0.009-0.185,0.026-0.368,0.028-0.553c0-0.055,0.009-0.109,0.009-0.166 c0-0.409-0.028-0.808-0.061-1.208c-0.006-0.079-0.004-0.157-0.012-0.236c-0.054-0.553-0.144-1.093-0.259-1.627 c-0.02-0.097-0.051-0.193-0.074-0.291c-0.105-0.441-0.227-0.874-0.369-1.297c-0.019-0.054-0.028-0.111-0.047-0.164L294.306,9.719 C292.259,3.897,286.76,0,280.589,0h-41.6c-6.062,0-11.488,3.762-13.616,9.438L128.33,268.434c0,0.001-0.001,0.003-0.001,0.006 l-24.773,66.146c-0.001,0.003-0.003,0.004-0.003,0.007l-34.445,91.922H31.567c-8.031,0-14.54,6.511-14.54,14.54v56.404 c0,8.029,6.51,14.54,14.54,14.54h147.309c8.031,0,14.54-6.511,14.54-14.54v-56.404c0-8.029-6.51-14.54-14.54-14.54h-22.589 l26.917-72.279h55.831c8.031,0,14.54-6.511,14.54-14.54C253.577,331.666,247.067,325.155,239.036,325.155z M219.007,258.996 l21.611-57.772l20.283,57.772H219.007z M249.066,29.081h21.22l80.827,229.915h-59.393l-36.95-105.248 c-2.028-5.774-7.452-9.662-13.572-9.723c-0.049-0.001-0.099-0.001-0.15-0.001c-6.059,0-11.491,3.762-13.617,9.445l-39.476,105.526 H162.92L249.066,29.081z M164.338,482.919H46.108v-27.323h33.08h56.17h28.979v27.323H164.338z M125.257,426.515h-25.094 l27.083-72.279h24.927L125.257,426.515z"/> <path style="fill:#bb9544;" d="M480.433,426.515h-39.588l-32.222-91.643c-2.047-5.822-7.546-9.717-13.717-9.717h-90.398 c-4.715,0-9.137,2.286-11.864,6.135c-2.726,3.847-3.418,8.777-1.854,13.226l28.809,82.001h-23.771 c-8.031,0-14.54,6.511-14.54,14.54v56.404c0,8.029,6.51,14.54,14.54,14.54h87.938c8.031,0,14.54-6.511,14.54-14.54 s-6.51-14.54-14.54-14.54h-73.397v-27.324h29.75h90.427h35.348v27.323h-15.768c-8.031,0-14.54,6.511-14.54,14.54 c0,8.029,6.51,14.54,14.54,14.54h30.308c8.031,0,14.54-6.511,14.54-14.54v-56.404C494.973,433.026,488.463,426.515,480.433,426.515 z M350.421,426.515l-25.393-72.279h59.578l25.414,72.279H350.421z"/> </g> </g>
</svg>