<!DOCTYPE svg PUBLIC "-//W3C//DTD SVG 1.1//EN" "http://www.w3.org/Graphics/SVG/1.1/DTD/svg11.dtd">
<!-- Uploaded to: SVG Repo, www.svgrepo.com, Transformed by: SVG Repo Mixer Tools -->
<svg fill="#93631f" version="1.1" id="Layer_1" xmlns="http://www.w3.org/2000/svg" xmlns:xlink="http://www.w3.org/1999/xlink" viewBox="0 0 472.615 472.615" xml:space="preserve" width="800px" height="800px" stroke="#93631f">
<g id="SVGRepo_bgCarrier" stroke-width="0"/>
<g id="SVGRepo_tracerCarrier" stroke-linecap="round" stroke-linejoin="round"/>
<g id="SVGRepo_iconCarrier"> <g> <g> <path d="M423.385,364.308v-59.11H246.154v-44.014c20.042-14.099,98.461-74.411,98.461-156.123C344.615,47.163,296.074,0,236.308,0 S128,47.163,128,105.06c0,81.711,78.42,142.024,98.462,156.123v44.014H49.231v59.11H0v108.308h118.154V364.308H68.923V324.89 h157.538v39.385h19.692V324.89h157.538v39.418h-49.231v108.308h118.154V364.308H423.385z M236.308,154.683 c-28.062,0-50.905-22.25-50.905-49.623c0-27.275,22.843-49.527,50.905-49.527s50.905,22.252,50.905,49.527 C287.212,132.433,264.369,154.683,236.308,154.683z"/> </g> </g> <g> <g> <rect x="177.231" y="364.308" width="118.154" height="108.308"/> </g> </g> </g>
</svg>