<?xml version="1.0" encoding="iso-8859-1"?>
<!-- Uploaded to: SVG Repo, www.svgrepo.com, Generator: SVG Repo Mixer Tools -->
<svg height="800px" width="800px" version="1.1" id="Layer_1" xmlns="http://www.w3.org/2000/svg" xmlns:xlink="http://www.w3.org/1999/xlink" 
	 viewBox="0 0 511.998 511.998" xml:space="preserve">
<g>
	<path style="fill:#8D663D;" d="M257.566,435.024l-8.61,28.699c-2.924,9.745,2.606,20.014,12.351,22.937
		c9.743,2.924,20.013-2.607,22.937-12.351l8.923-29.745v-9.54L257.566,435.024L257.566,435.024z"/>
	<path style="fill:#8D663D;" d="M321.863,445.488v48.089c0,10.173,8.248,18.421,18.421,18.421s18.421-8.248,18.421-18.421v-65.304
		h-36.842V445.488z"/>
	<path style="fill:#8D663D;" d="M400.58,385.185l46.034,92.069c3.227,6.456,9.732,10.187,16.491,10.187
		c2.768,0,5.579-0.626,8.223-1.949c9.1-4.55,12.788-15.615,8.238-24.715l-56.05-112.102h-22.937v36.509H400.58z"/>
</g>
<g>
	<path style="fill:#B69362;" d="M248.956,463.724c-2.503,8.341,1.201,17.052,8.428,21.226c3.921-2.266,7.031-5.959,8.434-10.64
		l2.352-7.837l-18.548-4.97L248.956,463.724z"/>
	<path style="fill:#B69362;" d="M321.863,493.578c0,6.813,3.709,12.749,9.208,15.935c5.499-3.187,9.208-9.122,9.208-15.935v-24.593
		c-6.149,2.122-12.299,3.633-18.417,4.517v20.076H321.863z"/>
	<path style="fill:#B69362;" d="M414.292,412.611l32.323,64.644c1.674,3.348,4.233,5.955,7.248,7.698
		c8.384-4.831,11.663-15.405,7.28-24.173l-33.201-66.402c-4.076,5.907-8.271,11.564-12.578,16.924
		C415.008,411.744,414.65,412.172,414.292,412.611z"/>
</g>
<path style="fill:#E7E4CD;" d="M408.732,17.828L349.42,1.936l-114.425,427.04l223.284-169.021
	C489.902,141.936,467.742,33.641,408.732,17.828z"/>
<path style="fill:#C1BDAB;" d="M292.208,215.457l-57.212,213.519l59.311,15.892c59.01,15.811,132.349-66.894,163.973-184.914
	L292.208,215.457z"/>
<path style="fill:#AB5034;" d="M398.967,244.063C430.59,126.043,408.43,17.749,349.42,1.937S217.071,68.83,185.448,186.85
	s-9.462,226.315,49.548,242.126C294.006,444.788,367.345,362.083,398.967,244.063z"/>
<path style="fill:#E7E4CD;" d="M254.066,357.803c-39.34-10.54-54.114-82.737-33.031-161.417S291.01,62.569,330.35,73.11
	c39.34,10.54,54.114,82.737,33.031,161.417C342.299,313.207,293.406,368.345,254.066,357.803z"/>
<path style="fill:#AB5034;" d="M327.795,224.992c10.54-39.34,3.154-75.438-16.516-80.709c-19.67-5.271-44.116,22.298-54.658,61.638
	c-10.542,39.34-3.154,75.438,16.516,80.709C292.807,291.901,317.253,264.332,327.795,224.992z"/>
<path style="opacity:0.2;fill:#493023;enable-background:new    ;" d="M349.42,1.936l-114.425,427.04
	c59.01,15.811,132.349-66.894,163.973-184.914C430.591,126.043,408.43,17.749,349.42,1.936z"/>
<path style="fill:#E7E4CD;" d="M85.167,194.217l22.728,7.384c5.028,1.633,10.536-0.134,13.675-4.385l17.661-24.123l-15.574-17.388
	l-15.425,7.269L83.366,175.11L85.167,194.217z"/>
<polygon style="fill:#D5D2BD;" points="77.086,152.853 53.858,167.681 54.022,184.097 85.167,194.217 108.231,162.973 
	92.51,145.584 "/>
<path style="fill:#E7E4CD;" d="M45.645,142.733l-12.799,17.563c-4.918,6.748-1.813,16.332,6.129,18.912l15.045,4.889l23.064-31.245
	l-15.778-17.359L45.645,142.733z"/>
<path style="opacity:0.2;fill:#47423F;enable-background:new    ;" d="M123.655,155.704l-15.425,7.269l-15.72-17.388l-15.425,7.269
	l-15.778-17.359l-15.663,7.239l-12.799,17.563c-4.918,6.748-1.813,16.332,6.129,18.912l15.045,4.889l31.145,10.119l22.728,7.384
	c5.028,1.633,10.536-0.134,13.675-4.385l17.661-24.123L123.655,155.704z"/>
<path style="fill:#D5D2BD;" d="M108.017,124.139L95.9,133.305l12.412,29.668l30.918,10.119V143.11
	c-0.041-5.286-3.458-9.953-8.486-11.587L108.017,124.139z"/>
<polygon style="fill:#E7E4CD;" points="108.312,162.973 108.017,124.139 76.872,114.019 65.962,129.148 77.167,152.853 "/>
<path style="fill:#D5D2BD;" d="M76.872,114.019l-15.07-4.896c-7.935-2.578-16.156,3.337-16.156,11.68v21.931l31.522,10.119
	L76.872,114.019z"/>
<path style="fill:#625143;" d="M291.164,232.616c-0.957,0-1.929-0.15-2.888-0.467L42.662,151.097
	c-4.831-1.594-7.454-6.802-5.86-11.632c1.594-4.831,6.802-7.454,11.632-5.86l245.614,81.052c4.831,1.594,7.454,6.802,5.86,11.632
	C298.631,230.161,295.03,232.616,291.164,232.616z"/>
</svg>